<svg style="width=0; height=0; visibility: hidden;" xmlns="http://www.w3.org/2000/svg">

    <!-- ln -->
    <symbol id="svg-ln" viewBox="0 0 32 32">
        <g>
        <path d="M7.44897 10.2947H1.02492C0.739808 10.2947 0.508789 10.5258 0.508789 10.8108V31.4485C0.508789 31.7336 0.739808 31.9647 1.02492 31.9647H7.44897C7.73408 31.9647 7.9651 31.7336 7.9651 31.4485V10.8108C7.9651 10.5258 7.73408 10.2947 7.44897 10.2947Z"/>
        <path d="M4.23907 0.0351868C1.90163 0.0351868 0 1.93475 0 4.26961C0 6.60551 1.90163 8.50579 4.23907 8.50579C6.57466 8.50579 8.47474 6.60541 8.47474 4.26961C8.47484 1.93475 6.57466 0.0351868 4.23907 0.0351868Z"/>
        <path d="M23.789 9.78177C21.2088 9.78177 19.3015 10.8909 18.1447 12.1512V10.8108C18.1447 10.5258 17.9137 10.2947 17.6286 10.2947H11.4764C11.1913 10.2947 10.9603 10.5258 10.9603 10.8108V31.4486C10.9603 31.7337 11.1913 31.9647 11.4764 31.9647H17.8864C18.1715 31.9647 18.4025 31.7337 18.4025 31.4486V21.2377C18.4025 17.7968 19.3371 16.4564 21.7357 16.4564C24.3479 16.4564 24.5555 18.6053 24.5555 21.4147V31.4487C24.5555 31.7338 24.7865 31.9648 25.0717 31.9648H31.484C31.7692 31.9648 32.0002 31.7338 32.0002 31.4487V20.1285C32.0002 15.0121 31.0246 9.78177 23.789 9.78177Z" />
        </g>
    </symbol>

    <!-- git -->
    <symbol id="svg-git" viewBox="0 0 42 42">
        <g>
        <path d="M21 0.875C9.3975 0.875 0 10.115 0 21.511C0 30.6303 6.0165 38.3635 14.3587 41.09C15.4087 41.2843 15.7937 40.6455 15.7937 40.0978C15.7937 39.6078 15.7763 38.3093 15.7675 36.589C9.926 37.8333 8.694 33.8205 8.694 33.8205C7.7385 31.4388 6.35775 30.8018 6.35775 30.8018C4.4555 29.5225 6.50475 29.5488 6.50475 29.5488C8.6135 29.6923 9.72125 31.675 9.72125 31.675C11.5937 34.8303 14.637 33.9185 15.8375 33.3918C16.0265 32.0565 16.5673 31.1483 17.1675 30.632C12.5038 30.1158 7.602 28.3413 7.602 20.4348C7.602 18.1825 8.41575 16.3415 9.76325 14.8978C9.527 14.3763 8.81825 12.278 9.947 9.436C9.947 9.436 11.7058 8.883 15.722 11.5518C17.402 11.0933 19.187 10.8658 20.972 10.8553C22.757 10.8658 24.542 11.0933 26.222 11.5518C30.212 8.883 31.9707 9.436 31.9707 9.436C33.0995 12.278 32.3907 14.3763 32.1807 14.8978C33.5195 16.3415 34.3332 18.1825 34.3332 20.4348C34.3332 28.3623 29.4245 30.107 24.752 30.6145C25.487 31.234 26.1695 32.4993 26.1695 34.433C26.1695 37.1945 26.1433 39.4135 26.1433 40.0838C26.1433 40.6245 26.5107 41.2703 27.587 41.0638C35.9888 38.3548 42 30.6163 42 21.511C42 10.115 32.5972 0.875 21 0.875V0.875Z" />
        </g>
    </symbol>

    <!-- tg -->
    <symbol id="svg-tg" viewBox="0 0 48 48">
        <g>
       <path d="M24 48C37.2548 48 48 37.2548 48 24C48 10.7452 37.2548 0 24 0C10.7452 0 0 10.7452 0 24C0 37.2548 10.7452 48 24 48Z"/>
        <path d="M10.9818 23.48L34.1218 14.558C35.1958 14.17 36.1338 14.82 35.7858 16.444L35.7878 16.442L31.8478 35.004C31.5558 36.32 30.7738 36.64 29.6798 36.02L23.6798 31.598L20.7858 34.386C20.4658 34.706 20.1958 34.976 19.5758 34.976L20.0018 28.87L31.1218 18.824C31.6058 18.398 31.0138 18.158 30.3758 18.582L16.6338 27.234L10.7098 25.386C9.42379 24.978 9.39579 24.1 10.9818 23.48V23.48Z"/>
        </g>
    </symbol>

    <!-- location -->
    <symbol id="svg-loc" viewBox="0 0 64 64">
        <g>
        <path d="M32,0C18.746,0,8,10.746,8,24c0,5.219,1.711,10.008,4.555,13.93c0.051,0.094,0.059,0.199,0.117,0.289l16,24
	C29.414,63.332,30.664,64,32,64s2.586-0.668,3.328-1.781l16-24c0.059-0.09,0.066-0.195,0.117-0.289C54.289,34.008,56,29.219,56,24
	C56,10.746,45.254,0,32,0z M32,32c-4.418,0-8-3.582-8-8s3.582-8,8-8s8,3.582,8,8S36.418,32,32,32z"/>
        </g>
    </symbol>

</svg>