<svg style="width=0; height=0; visibility: hidden;" xmlns="http://www.w3.org/2000/svg">

    <!-- ln -->
    <symbol id="svg-ln" viewBox="0 0 32 32">
        <g>
        <path d="M7.44897 10.2947H1.02492C0.739808 10.2947 0.508789 10.5258 0.508789 10.8108V31.4485C0.508789 31.7336 0.739808 31.9647 1.02492 31.9647H7.44897C7.73408 31.9647 7.9651 31.7336 7.9651 31.4485V10.8108C7.9651 10.5258 7.73408 10.2947 7.44897 10.2947Z"/>
        <path d="M4.23907 0.0351868C1.90163 0.0351868 0 1.93475 0 4.26961C0 6.60551 1.90163 8.50579 4.23907 8.50579C6.57466 8.50579 8.47474 6.60541 8.47474 4.26961C8.47484 1.93475 6.57466 0.0351868 4.23907 0.0351868Z"/>
        <path d="M23.789 9.78177C21.2088 9.78177 19.3015 10.8909 18.1447 12.1512V10.8108C18.1447 10.5258 17.9137 10.2947 17.6286 10.2947H11.4764C11.1913 10.2947 10.9603 10.5258 10.9603 10.8108V31.4486C10.9603 31.7337 11.1913 31.9647 11.4764 31.9647H17.8864C18.1715 31.9647 18.4025 31.7337 18.4025 31.4486V21.2377C18.4025 17.7968 19.3371 16.4564 21.7357 16.4564C24.3479 16.4564 24.5555 18.6053 24.5555 21.4147V31.4487C24.5555 31.7338 24.7865 31.9648 25.0717 31.9648H31.484C31.7692 31.9648 32.0002 31.7338 32.0002 31.4487V20.1285C32.0002 15.0121 31.0246 9.78177 23.789 9.78177Z" />
        </g>
    </symbol>

    <!-- git -->
    <symbol id="svg-git" viewBox="0 0 42 42">
        <g>
        <path d="M21 0.875C9.3975 0.875 0 10.115 0 21.511C0 30.6303 6.0165 38.3635 14.3587 41.09C15.4087 41.2843 15.7937 40.6455 15.7937 40.0978C15.7937 39.6078 15.7763 38.3093 15.7675 36.589C9.926 37.8333 8.694 33.8205 8.694 33.8205C7.7385 31.4388 6.35775 30.8018 6.35775 30.8018C4.4555 29.5225 6.50475 29.5488 6.50475 29.5488C8.6135 29.6923 9.72125 31.675 9.72125 31.675C11.5937 34.8303 14.637 33.9185 15.8375 33.3918C16.0265 32.0565 16.5673 31.1483 17.1675 30.632C12.5038 30.1158 7.602 28.3413 7.602 20.4348C7.602 18.1825 8.41575 16.3415 9.76325 14.8978C9.527 14.3763 8.81825 12.278 9.947 9.436C9.947 9.436 11.7058 8.883 15.722 11.5518C17.402 11.0933 19.187 10.8658 20.972 10.8553C22.757 10.8658 24.542 11.0933 26.222 11.5518C30.212 8.883 31.9707 9.436 31.9707 9.436C33.0995 12.278 32.3907 14.3763 32.1807 14.8978C33.5195 16.3415 34.3332 18.1825 34.3332 20.4348C34.3332 28.3623 29.4245 30.107 24.752 30.6145C25.487 31.234 26.1695 32.4993 26.1695 34.433C26.1695 37.1945 26.1433 39.4135 26.1433 40.0838C26.1433 40.6245 26.5107 41.2703 27.587 41.0638C35.9888 38.3548 42 30.6163 42 21.511C42 10.115 32.5972 0.875 21 0.875V0.875Z" />
        </g>
    </symbol>

    <!-- tg -->
    <symbol id="svg-tg" viewBox="0 0 48 48">
        <g>
        <path d="M41.4193 7.30899C41.4193 7.30899 45.3046 5.79399 44.9808 9.47328C44.8729 10.9883 43.9016 16.2908 43.1461 22.0262L40.5559 39.0159C40.5559 39.0159 40.3401 41.5048 38.3974 41.9377C36.4547 42.3705 33.5408 40.4227 33.0011 39.9898C32.5694 39.6652 24.9068 34.7955 22.2086 32.4148C21.4531 31.7655 20.5897 30.4669 22.3165 28.9519L33.6487 18.1305C34.9438 16.8319 36.2389 13.8019 30.8426 17.4812L15.7331 27.7616C15.7331 27.7616 14.0063 28.8437 10.7686 27.8698L3.75342 25.7055C3.75342 25.7055 1.16321 24.0823 5.58815 22.459C16.3807 17.3729 29.6555 12.1786 41.4193 7.30899Z"/>
        </g>
    </symbol>

    <!-- location -->
    <symbol id="svg-loc" viewBox="0 0 64 64">
        <g>
        <path d="M32,0C18.746,0,8,10.746,8,24c0,5.219,1.711,10.008,4.555,13.93c0.051,0.094,0.059,0.199,0.117,0.289l16,24
	C29.414,63.332,30.664,64,32,64s2.586-0.668,3.328-1.781l16-24c0.059-0.09,0.066-0.195,0.117-0.289C54.289,34.008,56,29.219,56,24
	C56,10.746,45.254,0,32,0z M32,32c-4.418,0-8-3.582-8-8s3.582-8,8-8s8,3.582,8,8S36.418,32,32,32z"/>
        </g>
    </symbol>

    <!-- tennis -->
    <symbol id="svg-tennis" viewBox="0 -0.5 17 17">
        <g>
<circle cx="13.953" cy="13.953" r="1.953" class="si-glyph-fill">

</circle>

<path d="M14.754,1.265 C12.76,-0.733 9.038,-0.26 6.462,2.32 C4.895,3.884 4.111,5.875 4.182,7.641 C4.095,7.72 4.047,7.839 4.076,7.968 C4.538,10.066 2.698,12.224 2.678,12.247 C2.654,12.275 2.636,12.309 2.624,12.343 L0.244,14.723 C-0.044,15.011 -0.055,15.467 0.22,15.743 L0.242,15.763 C0.514,16.038 0.972,16.028 1.259,15.738 L3.714,13.286 C3.881,13.159 6.249,11.415 7.954,11.9 C8.067,11.933 8.177,11.903 8.26,11.838 C10.057,11.949 12.101,11.161 13.702,9.558 C16.278,6.981 16.75,3.26 14.754,1.265 L14.754,1.265 Z M6.225,9.84 C5.969,9.585 5.773,9.29 5.621,8.971 L6.976,7.615 L8.405,9.045 L7.035,10.416 C6.738,10.267 6.463,10.079 6.225,9.84 L6.225,9.84 Z M7.684,6.909 L9.098,5.493 L10.528,6.923 L9.112,8.337 L7.684,6.909 L7.684,6.909 Z M9.111,4.095 L7.652,2.636 C8.19,2.163 8.769,1.789 9.361,1.515 L10.527,2.68 L9.111,4.095 L9.111,4.095 Z M11.219,3.372 L12.649,4.802 L11.234,6.216 L9.805,4.788 L11.219,3.372 L11.219,3.372 Z M6.945,3.341 L8.405,4.802 L6.99,6.216 L5.825,5.05 C6.1,4.46 6.473,3.88 6.945,3.341 L6.945,3.341 Z M11.219,7.615 L12.723,9.118 C12.185,9.591 11.605,9.964 11.014,10.239 L9.805,9.03 L11.219,7.615 L11.219,7.615 Z M11.926,6.909 L13.341,5.493 L14.549,6.702 C14.276,7.294 13.902,7.874 13.429,8.411 L11.926,6.909 L11.926,6.909 Z M14.926,5.667 L14.047,4.788 L15.055,3.779 C15.143,4.372 15.096,5.017 14.926,5.667 L14.926,5.667 Z M14.15,1.914 C14.388,2.153 14.576,2.428 14.724,2.725 L13.354,4.095 L11.925,2.666 L13.28,1.312 C13.6,1.462 13.895,1.659 14.15,1.914 L14.15,1.914 Z M12.205,1.001 L11.233,1.974 L10.397,1.138 C11.02,0.976 11.633,0.929 12.205,1.001 L12.205,1.001 Z M5.449,6.087 L6.283,6.923 L5.31,7.896 C5.239,7.323 5.285,6.71 5.449,6.087 L5.449,6.087 Z M3.898,12.312 C3.875,12.279 3.862,12.241 3.834,12.212 L3.813,12.191 C3.784,12.162 3.747,12.15 3.714,12.127 C4.077,11.584 4.549,10.734 4.765,9.752 C4.944,10.071 5.163,10.369 5.43,10.635 C5.68,10.886 5.956,11.098 6.256,11.272 C5.322,11.498 4.457,11.962 3.898,12.312 L3.898,12.312 Z M8.09,10.745 L9.098,9.736 L9.977,10.615 C9.326,10.786 8.682,10.833 8.09,10.745 L8.09,10.745 Z" class="si-glyph-fill">

</path>
        </g>
    </symbol>

    <!-- music -->
    <symbol id="svg-music" viewBox="0 0 16 18">
        <g>
       <path d="M14.3 0.319999L6.72 2.64C6.25333 2.77333 5.86 3.04667 5.54 3.46C5.22 3.87333 5.06 4.30667 5.06 4.76V12.76L4.88 12.66C4.70667 12.5933 4.51333 12.5533 4.3 12.54C3.99333 12.5 3.66 12.5067 3.3 12.56C2.71333 12.64 2.16667 12.8333 1.66 13.14C1.16667 13.4333 0.773334 13.8067 0.48 14.26C0.186667 14.7 0.0400001 15.1533 0.0400001 15.62C0.0400001 16.0867 0.186667 16.4933 0.48 16.84C0.773334 17.1867 1.16667 17.4333 1.66 17.58C2.16667 17.74 2.71333 17.78 3.3 17.7C3.88667 17.62 4.41333 17.4333 4.88 17.14C5.36 16.8467 5.73333 16.48 6 16.04C6.26667 15.6133 6.4 15.16 6.4 14.68V7.86C6.4 7.67333 6.46667 7.5 6.6 7.34C6.69333 7.22 6.82 7.12 6.98 7.04L7.18 6.94L13.86 4.84L14.06 4.8C14.2067 4.78667 14.3267 4.80667 14.42 4.86C14.5533 4.94 14.62 5.08 14.62 5.28V10.76L14.4 10.66C14.2 10.5933 13.98 10.54 13.74 10.5C13.4067 10.46 13.06 10.46 12.7 10.5C12.1133 10.5667 11.5733 10.7533 11.08 11.06C10.5867 11.3533 10.1933 11.72 9.9 12.16C9.60667 12.6 9.46 13.0533 9.46 13.52C9.46 13.9867 9.60667 14.4 9.9 14.76C10.1933 15.1067 10.5867 15.36 11.08 15.52C11.5733 15.68 12.1133 15.7267 12.7 15.66C13.2867 15.5933 13.8267 15.4133 14.32 15.12C14.8267 14.8133 15.2267 14.4467 15.52 14.02C15.8133 13.58 15.96 13.1267 15.96 12.66V1.5C15.96 1.04667 15.8 0.706666 15.48 0.48C15.16 0.239999 14.7667 0.186666 14.3 0.319999Z"/>
        </g>
    </symbol>


    <!-- travel -->
    <symbol id="svg-travel" viewBox="0 0 21 23">
        <g>
       <path d="M19.125 9.375C19.025 9.375 18.8667 9.375 18.65 9.375C18.25 9.35833 17.9417 9.35833 17.725 9.375C17.575 9.39167 17.45 9.375 17.35 9.325C17.2667 9.25833 17.175 9.15833 17.075 9.025C16.9083 8.74167 16.6417 8.325 16.275 7.775C15.9083 7.225 15.6333 6.80833 15.45 6.525C15.15 6.04167 14.7 5.775 14.1 5.725C13.9667 5.69167 13.8583 5.675 13.775 5.675C13.6583 5.675 13.4833 5.65 13.25 5.6C12.8667 5.53333 12.5833 5.51667 12.4 5.55C11.55 5.65 10.275 5.81667 8.575 6.05C8.09167 6.13333 7.775 6.39167 7.625 6.825L6.8 9.425C6.73333 9.64167 6.71667 9.80833 6.75 9.925C6.8 10.1583 6.91667 10.3667 7.1 10.55C7.3 10.7333 7.50833 10.8333 7.725 10.85C8.025 10.8667 8.275 10.8083 8.475 10.675C8.69167 10.5417 8.84167 10.3333 8.925 10.05L9.5 8.325C9.55 8.225 9.61667 8.16667 9.7 8.15C9.91667 8.13333 10.2 8.09167 10.55 8.025C10.6667 8.00833 10.7417 8.01667 10.775 8.05C10.8083 8.08333 10.8083 8.16667 10.775 8.3L9.8 12.175C9.65 12.725 9.64167 13.1917 9.775 13.575C9.925 13.9417 10.2417 14.2917 10.725 14.625L11.95 15.475C12.8833 16.1083 13.5833 16.5833 14.05 16.9C14.2 16.9833 14.3 17.1417 14.35 17.375L14.425 17.9C14.6583 19.35 14.8417 20.4417 14.975 21.175C15.0417 21.5083 15.2 21.7667 15.45 21.95C15.7 22.15 15.975 22.225 16.275 22.175C16.6083 22.125 16.8667 21.9667 17.05 21.7C17.25 21.4333 17.325 21.125 17.275 20.775L16.5 16.25C16.45 15.9167 16.2667 15.6417 15.95 15.425L15.55 15.125C14.75 14.525 14.1333 14.0917 13.7 13.825C13.6 13.7583 13.5333 13.6833 13.5 13.6C13.4833 13.5167 13.4917 13.4167 13.525 13.3L14.45 9.05C14.5833 9.26667 14.775 9.56667 15.025 9.95C15.2917 10.3333 15.4833 10.625 15.6 10.825C15.9 11.3583 16.325 11.625 16.875 11.625C17.125 11.6083 17.4917 11.6 17.975 11.6C18.475 11.6 18.85 11.6 19.1 11.6C19.45 11.6 19.7333 11.5 19.95 11.3C20.1833 11.0833 20.3 10.8167 20.3 10.5C20.3 10.1833 20.1833 9.91667 19.95 9.7C19.7333 9.48333 19.4583 9.375 19.125 9.375ZM7.025 11.55C6.775 11.5667 6.6 11.7333 6.5 12.05L6.4 12.375C6.21667 13.0583 6.08333 13.5667 6 13.9C5.98333 14.0167 5.94167 14.0917 5.875 14.125C5.825 14.1417 5.74167 14.1333 5.625 14.1L5 13.925C4.5 13.7917 4.15 13.7167 3.95 13.7C3.43333 13.7 2.99167 13.825 2.625 14.075C2.275 14.325 2.03333 14.6667 1.9 15.1L0.725 19.45C0.658333 19.7333 0.691667 19.9917 0.825 20.225C0.975 20.475 1.19167 20.6417 1.475 20.725L2.625 21.025C2.70833 21.0417 2.76667 21.0333 2.8 21C2.83333 20.9833 2.85833 20.9333 2.875 20.85C2.925 20.4167 3.08333 20.05 3.35 19.75C3.61667 19.45 3.94167 19.25 4.325 19.15C4.725 19.05 5.125 19.075 5.525 19.225C5.625 19.2583 5.7 19.2667 5.75 19.25C5.8 19.2333 5.83333 19.175 5.85 19.075C5.98333 18.5083 6.2 17.675 6.5 16.575L7.625 12.275C7.675 12.0583 7.64167 11.8833 7.525 11.75C7.40833 11.6 7.24167 11.5333 7.025 11.55ZM14.275 4.825C14.8917 4.825 15.4167 4.6 15.85 4.15C16.3 3.7 16.525 3.16667 16.525 2.55C16.525 1.93333 16.3 1.40833 15.85 0.974999C15.4167 0.524999 14.8917 0.299999 14.275 0.299999C13.6583 0.299999 13.125 0.524999 12.675 0.974999C12.2417 1.40833 12.025 1.93333 12.025 2.55C12.025 3.16667 12.2417 3.7 12.675 4.15C13.1083 4.58333 13.6417 4.80833 14.275 4.825ZM10.975 15.825C10.8917 15.775 10.7667 15.6917 10.6 15.575C10.25 15.3583 10 15.1833 9.85 15.05C9.58333 14.8333 9.375 14.5917 9.225 14.325C8.49167 17.1083 7.925 19.25 7.525 20.75C7.475 20.9167 7.475 21.0917 7.525 21.275C7.59167 21.5417 7.725 21.7583 7.925 21.925C8.125 22.0917 8.36667 22.175 8.65 22.175C8.93333 22.175 9.175 22.0917 9.375 21.925C9.575 21.7583 9.70833 21.525 9.775 21.225L11.125 16.225C11.1417 16.1417 11.1417 16.075 11.125 16.025C11.1083 15.9583 11.0583 15.8917 10.975 15.825ZM4.85 19.95C4.55 19.9333 4.28333 20.0333 4.05 20.25C3.83333 20.4833 3.71667 20.75 3.7 21.05C3.7 21.35 3.80833 21.6083 4.025 21.825C4.24167 22.0583 4.5 22.175 4.8 22.175C5.11667 22.1917 5.38333 22.0833 5.6 21.85C5.83333 21.6333 5.95 21.375 5.95 21.075C5.96667 20.775 5.85833 20.5083 5.625 20.275C5.40833 20.0583 5.15 19.95 4.85 19.95Z"/>
        </g>
    </symbol>

</svg>